<?xml version="1.0" encoding="utf-8"?>
<!-- Generator: Adobe Illustrator 18.1.1, SVG Export Plug-In . SVG Version: 6.00 Build 0)  -->
<svg version="1.1" id="Ebene_1" xmlns="http://www.w3.org/2000/svg" xmlns:xlink="http://www.w3.org/1999/xlink" x="0px" y="0px"
	 viewBox="0 0 400 400" enable-background="new 0 0 300 300" xml:space="preserve">
<path fill="none" stroke="#d6aa51" stroke-width="4" vector-effect="non-scaling-stroke" stroke-linecap="round" stroke-linejoin="round" stroke-miterlimit="10" d="
	M133.7,269.4h-7.9c-18.2,0-33-14.8-33-33V184c0-18.2,14.8-33,33-33h113.6c18.2,0,33,14.8,33,33v52.4c0,18.2-14.8,33-33,33h-60.5"/>
<path fill="none" stroke="#d6aa51" stroke-width="4" vector-effect="non-scaling-stroke" stroke-miterlimit="10" d="M127.5,148.8c0-18.2,14.8-33,33-33h113.6
	c18.2,0,33,14.8,33,33v52.4c0,18.2-14.8,33-33,33"/>
<polyline fill="none" stroke="#d6aa51" stroke-width="4" vector-effect="non-scaling-stroke" stroke-linecap="round" stroke-linejoin="round" stroke-miterlimit="10" points="
	133.7,269.4 133.7,315.7 178.9,269.4 "/>
<line fill="none" stroke="#d6aa51" stroke-width="4" vector-effect="non-scaling-stroke" stroke-linecap="round" stroke-linejoin="round" stroke-miterlimit="10" x1="119.4" y1="185.6" x2="244.7" y2="185.6"/>
<line fill="none" stroke="#d6aa51" stroke-width="4" vector-effect="non-scaling-stroke" stroke-linecap="round" stroke-linejoin="round" stroke-miterlimit="10" x1="119.4" y1="210.2" x2="244.7" y2="210.2"/>
<line fill="none" stroke="#d6aa51" stroke-width="4" vector-effect="non-scaling-stroke" stroke-linecap="round" stroke-linejoin="round" stroke-miterlimit="10" x1="119.4" y1="234.2" x2="244.7" y2="234.2"/>
</svg>
