<?xml version="1.0" encoding="utf-8"?>
<!-- Made by Roman Bejnar, SVG Version: 6.00 Build 0)  -->
<svg version="1.1" id="phone" xmlns="http://www.w3.org/2000/svg" xmlns:xlink="http://www.w3.org/1999/xlink" x="0px" y="0px"
	 viewBox="0 0 400 400" enable-background="new 0 0 300 300" xml:space="preserve">
<path fill="none" stroke="#000000" stroke-width="5" stroke-miterlimit="10" d="M94.4,200c0-58.3,47.3-105.6,105.6-105.6
	S305.6,141.7,305.6,200"/>
<path fill="none" stroke="#000000" stroke-width="5" stroke-miterlimit="10" d="M103.1,271H90.3c-5.4,0-9.7-4.3-9.7-9.7v-51.6
	c0-5.4,4.3-9.7,9.7-9.7h13.8c2.2,0,4,1.8,4,4v61.9C108.2,268.7,105.9,271,103.1,271z"/>
<path fill="none" stroke="#000000" stroke-width="5" stroke-miterlimit="10" d="M309.7,271h-13.8c-2.3,0-4.1-1.8-4.1-4.1v-64.1
	c0-1.5,1.3-2.8,2.8-2.8h15.1c5.4,0,9.7,4.3,9.7,9.7v51.6C319.4,266.7,315,271,309.7,271z"/>
<path fill="none" stroke="#000000" stroke-width="5" stroke-miterlimit="10" d="M159.3,300.4h-26.8c-13.4,0-24.3-10.9-24.3-24.3v0
	v-14.8"/>
<path fill="none" stroke="#000000" stroke-width="5" stroke-miterlimit="10" d="M188.6,284.6h-15.4c-8.8,0-15.9,7.1-15.9,15.9v0
	c0,8.8,7.1,15.9,15.9,15.9h15.4c8.8,0,15.9-7.1,15.9-15.9v0C204.4,291.7,197.3,284.6,188.6,284.6z"/>
</svg>
