<?xml version="1.0" encoding="utf-8"?>
<!-- Made by Roman Bejnar, SVG Version: 6.00 Build 0)  -->
<svg version="1.1" id="profile" xmlns="http://www.w3.org/2000/svg" xmlns:xlink="http://www.w3.org/1999/xlink" x="0px" y="0px"
	 viewBox="0 0 400 400" enable-background="new 0 0 400 400" xml:space="preserve">
<path fill="none" stroke="#000000" stroke-width="1" vector-effect="non-scaling-stroke"  stroke-miterlimit="10" d="M292.1,95.4v209.2c0,6.3-5.8,11.4-12.9,11.4H120.8
	c-7.1,0-12.9-5.1-12.9-11.4V95.4c0-6.3,5.8-11.4,12.9-11.4h158.4C286.3,84,292.1,89.1,292.1,95.4z"/>
<line fill="none" stroke="#000000" stroke-width="1" vector-effect="non-scaling-stroke"  stroke-linecap="round" stroke-miterlimit="10" x1="132.4" y1="220.6" x2="267.9" y2="220.6"/>
<line fill="none" stroke="#000000" stroke-width="1" vector-effect="non-scaling-stroke"  stroke-linecap="round" stroke-miterlimit="10" x1="132.4" y1="247.8" x2="267.9" y2="247.8"/>
<line fill="none" stroke="#000000" stroke-width="1" vector-effect="non-scaling-stroke"  stroke-linecap="round" stroke-miterlimit="10" x1="132.4" y1="275" x2="267.9" y2="275"/>
<line fill="none" stroke="#000000" stroke-width="1" vector-effect="non-scaling-stroke"  stroke-linecap="round" stroke-miterlimit="10" x1="214.5" y1="166.4" x2="267.9" y2="166.4"/>
<line fill="none" stroke="#000000" stroke-width="1" vector-effect="non-scaling-stroke"  stroke-linecap="round" stroke-miterlimit="10" x1="214.5" y1="193.6" x2="267.9" y2="193.6"/>
<line fill="none" stroke="#000000" stroke-width="1" vector-effect="non-scaling-stroke"  stroke-linecap="round" stroke-miterlimit="10" x1="214.5" y1="139.3" x2="267.9" y2="139.3"/>
<circle fill="none" stroke="#000000" stroke-width="1" vector-effect="non-scaling-stroke"  stroke-linecap="round" stroke-miterlimit="10" cx="161.4" cy="130.4" r="15.6"/>
<path fill="none" stroke="#000000" stroke-width="1" vector-effect="non-scaling-stroke"  stroke-linecap="round" stroke-miterlimit="10" d="M132.4,175c0-16,13-29,29-29
	s29,13,29,29"/>
</svg>
